Coordinates
version=1
nRows=8
nColumns=36
inDegrees=yes

Units are S.I. units (second, meters, Newtons, ...)
If the header above contains a line with 'inDegrees', this indicates whether rotational values are in degrees (yes) or radians (no).

endheader
time	pelvis_tilt	pelvis_list	pelvis_rotation	pelvis_tx	pelvis_ty	pelvis_tz	hip_flexion_r	hip_adduction_r	hip_rotation_r	knee_angle_r	knee_angle_r_beta	ankle_angle_r	subtalar_angle_r	mtp_angle_r	hip_flexion_l	hip_adduction_l	hip_rotation_l	knee_angle_l	knee_angle_l_beta	ankle_angle_l	subtalar_angle_l	mtp_angle_l	lumbar_extension	lumbar_bending	lumbar_rotation	arm_flex_r	arm_add_r	arm_rot_r	elbow_flex_r	pro_sup_r	arm_flex_l	arm_add_l	arm_rot_l	elbow_flex_l	pro_sup_l
      3.41666670	      0.07266684	      2.63805351	     -4.66107334	     -0.08668997	      1.34609715	     -0.06082218	     -6.27440076	     -0.25048261	     -3.02322852	      2.12390364	      0.03706911	      6.87918275	     -9.57964475	     -7.49999987	     -4.29600064	      1.44353619	     -2.16721790	      0.44916828	      0.00783947	     12.44323976	      4.71767184	     -7.49999987	      4.16251557	     -2.71170581	      3.97516177	     44.12567739	     -0.64886358	     19.39777141	    147.25623955	     73.05234201	     -3.97683265	     -5.03649459	      0.69164651	     29.81877584	     54.38896036
      3.43333330	      0.09582175	      2.64488601	     -4.60488799	     -0.08901767	      1.34803295	     -0.06058889	     -6.26036134	     -0.25532618	     -3.20800004	      2.16742846	      0.03782876	      6.81380935	     -9.70552301	     -7.49999987	     -4.28933966	      1.44794456	     -2.13463086	      0.46022926	      0.00803252	     12.45958024	      4.75177832	     -7.49999987	      4.09791752	     -2.69685822	      4.10735232	     43.95099105	     -0.49960676	     19.55749753	    147.45498029	     73.04940190	     -3.96283302	     -5.00902239	      0.72779888	     29.91539578	     54.33564721
      3.45000000	      0.14282904	      2.68236990	     -4.51060388	     -0.08576919	      1.34727068	     -0.06116182	     -6.34348773	     -0.30143947	     -3.28141055	      2.18249690	      0.03809176	      6.65348533	     -9.85051564	     -7.49999987	     -4.36060179	      1.49933158	     -2.08276695	      0.48770997	      0.00851214	     12.34232048	      4.79485148	     -7.49999987	      4.09801081	     -2.73855887	      4.15127599	     43.66896716	     -0.40222781	     20.09331738	    147.81037486	     73.02974311	     -4.20476007	     -5.00943304	      0.85253050	     30.23372957	     54.11211540
      3.46666670	      0.16880288	      2.70130312	     -4.44288360	     -0.08618642	      1.34387756	     -0.06191065	     -6.41136717	     -0.37076037	     -3.52945496	      2.32117750	      0.04051219	      6.60274022	    -10.12412949	     -7.49999987	     -4.42682745	      1.53345710	     -1.98148554	      0.54210065	      0.00946144	     12.30301626	      4.29350764	     -7.49999987	      3.95111612	     -2.67708324	      4.15192181	     43.70325670	     -0.28704630	     20.71897698	    147.84894649	     72.04271801	     -4.61958092	     -4.96416252	      0.35242767	     31.06657910	     53.89624181
      3.48333330	      0.10876963	      2.75671881	     -4.43165256	     -0.08913873	      1.34997098	     -0.06138572	     -6.29639517	     -0.44137907	     -3.67136074	      2.31356466	      0.04037932	      6.53617192	    -10.23133670	     -7.49999987	     -4.32791073	      1.58560839	     -2.11202596	      0.58422220	      0.01019660	     12.23969196	      4.26736029	     -7.49999987	      3.76574050	     -2.72491530	      4.32875118	     43.45003464	     -0.22123749	     20.82969963	    147.76411075	     72.05076641	     -4.45303024	     -4.92267515	      0.47497732	     31.05204030	     53.80675781
      3.50000000	      0.07637533	      2.80694678	     -4.28155427	     -0.08735055	      1.35156490	     -0.06166754	     -6.28803756	     -0.49288077	     -3.72222923	      2.24774614	      0.03923057	      6.30786879	    -10.40320146	     -7.49999987	     -4.30889231	      1.64502852	     -1.88554922	      0.63866635	      0.01114683	     11.95628023	      3.90964831	     -7.49999987	      3.67969947	     -2.76102395	      4.67953349	     42.95914141	     -0.50646918	     20.96176683	    147.78851237	     72.34310701	     -3.98909499	     -5.10643611	      2.52179139	     30.57755818	     50.72007948
      3.51666670	      0.05789500	      2.84860626	     -4.20982673	     -0.08770108	      1.34838227	     -0.06193689	     -6.22954855	     -0.55311830	     -3.87050957	      2.26027873	      0.03944931	      6.38884534	    -10.17008484	     -7.49999987	     -4.29156726	      1.69992268	     -1.97792527	      0.71021342	      0.01239556	     11.87760884	      3.83101331	     -7.49999987	      3.51299773	     -2.80401306	      4.79863700	     42.65439302	     -0.55893759	     20.99749525	    147.74495023	     71.92272458	     -3.78077338	     -5.10040517	      3.08851386	     30.43126513	     50.48745076
      3.53333330	      0.16706215	      2.85458381	     -4.14266373	     -0.08374058	      1.34784069	     -0.06145533	     -6.45986905	     -0.55365933	     -3.87439758	      2.16141176	      0.03772375	      6.24964483	    -10.30144476	     -7.49999987	     -4.38543970	      1.71066437	     -2.04483092	      0.73123059	      0.01276238	     11.82079169	      3.95173156	     -7.49999987	      3.40568662	     -2.82173266	      4.66491465	     42.38783106	     -0.33819882	     21.42995226	    147.78098140	     72.36106060	     -4.09249037	     -5.11039086	      3.05258887	     30.68967346	     49.57296274
